<svg xmlns="http://www.w3.org/2000/svg" viewBox="0 0 24 24" height="24" width="24"><title>photography-equipment-film-print</title><g><path d="M20.572499999999998 0v24H24V0Zm2.2874999999999996 22.86h-1.1400000000000001v-1.1400000000000001h1.1400000000000001Zm0 -2.2874999999999996h-1.1400000000000001v-1.1400000000000001h1.1400000000000001Zm0 -2.2874999999999996h-1.1400000000000001v-1.1400000000000001h1.1400000000000001Zm0 -2.2800000000000002h-1.1400000000000001v-1.1475h1.1400000000000001Zm0 -2.2874999999999996h-1.1400000000000001v-1.1400000000000001h1.1400000000000001Zm0 -2.2874999999999996h-1.1400000000000001v-1.1400000000000001h1.1400000000000001Zm0 -2.2874999999999996h-1.1400000000000001v-1.1400000000000001h1.1400000000000001Zm0 -2.2800000000000002h-1.1400000000000001V5.715h1.1400000000000001Zm0 -2.2874999999999996h-1.1400000000000001V3.435h1.1400000000000001Zm0 -2.2874999999999996h-1.1400000000000001V1.1475h1.1400000000000001Z" fill="#000000" stroke-width="0.75"></path><path d="M18.2925 22.86h1.1400000000000001V24h-1.1400000000000001Z" fill="#000000" stroke-width="0.75"></path><path d="M18.2925 10.290000000000001h1.1400000000000001v7.995h-1.1400000000000001Z" fill="#000000" stroke-width="0.75"></path><path d="M18.2925 0h1.1400000000000001v5.715h-1.1400000000000001Z" fill="#000000" stroke-width="0.75"></path><path d="M5.715 21.72h12.5775v1.1400000000000001H5.715Z" fill="#000000" stroke-width="0.75"></path><path d="M5.715 18.285h12.5775v1.1475H5.715Z" fill="#000000" stroke-width="0.75"></path><path d="M16.005 14.857499999999998h1.1400000000000001v1.1475h-1.1400000000000001Z" fill="#000000" stroke-width="0.75"></path><path d="M5.715 5.715h12.5775v1.1475H5.715Z" fill="#000000" stroke-width="0.75"></path><path d="M14.857499999999998 12.5775h1.1475v1.1400000000000001h-1.1475Z" fill="#000000" stroke-width="0.75"></path><path d="M12.5775 16.005h3.4275v1.1400000000000001h-3.4275Z" fill="#000000" stroke-width="0.75"></path><path d="M12.5775 12.5775h1.1400000000000001v1.1400000000000001h-1.1400000000000001Z" fill="#000000" stroke-width="0.75"></path><path d="M11.43 14.857499999999998h1.1475v1.1475h-1.1475Z" fill="#000000" stroke-width="0.75"></path><path d="M5.715 9.1425h12.5775v1.1475H5.715Z" fill="#000000" stroke-width="0.75"></path><path d="M4.574999999999999 22.86h1.1400000000000001V24H4.574999999999999Z" fill="#000000" stroke-width="0.75"></path><path d="M4.574999999999999 10.290000000000001h1.1400000000000001v7.995H4.574999999999999Z" fill="#000000" stroke-width="0.75"></path><path d="M4.574999999999999 0h1.1400000000000001v5.715H4.574999999999999Z" fill="#000000" stroke-width="0.75"></path><path d="M0 0v24h3.435V0Zm2.2874999999999996 22.86H1.1475v-1.1400000000000001h1.1400000000000001Zm0 -2.2874999999999996H1.1475v-1.1400000000000001h1.1400000000000001Zm0 -2.2874999999999996H1.1475v-1.1400000000000001h1.1400000000000001Zm0 -2.2800000000000002H1.1475v-1.1475h1.1400000000000001Zm0 -2.2874999999999996H1.1475v-1.1400000000000001h1.1400000000000001Zm0 -2.2874999999999996H1.1475v-1.1400000000000001h1.1400000000000001Zm0 -2.2874999999999996H1.1475v-1.1400000000000001h1.1400000000000001Zm0 -2.2800000000000002H1.1475V5.715h1.1400000000000001Zm0 -2.2874999999999996H1.1475V3.435h1.1400000000000001Zm0 -2.2874999999999996H1.1475V1.1475h1.1400000000000001Z" fill="#000000" stroke-width="0.75"></path></g></svg>